#!OML:ASF H:\ManfredETheater\Project 1\Capture day 1\Session 1\subject.ASF
:FULLY-SPECIFIED
:DEGREES
301
root 0.251185 16.5118 -31.8427 -158.15 1.98252 -188.7
lowerback 11.5419 -0.461683 -5.63207
upperback -2.40475 -1.48416 -0.817177
thorax -8.96323 -0.422328 2.5809
lowerneck -18.9122 -0.630659 -1.76491
upperneck 8.40791 -0.173571 -1.14757
head 5.59342 -0.205062 -0.0975867
rclavicle -1.55052e-014 -1.59028e-014
rhumerus -49.3305 -3.70358 -83.681
rradius 51.6203
rwrist -6.06613
rhand -26.6932 -9.08163
rfingers 7.12502
rthumb -0.12376 -39.0613
lclavicle -1.55052e-014 -1.59028e-014
lhumerus -47.5259 -2.80864 92.9849
lradius 73.9883
lwrist 4.23578
lhand -24.652 -0.224779
lfingers 7.12502
lthumb 1.84769 29.747
rfemur -44.7146 -14.7548 12.0482
rtibia 84.8062
rfoot -11.7704 -15.1844
rtoes -32.1905
lfemur -20.6542 -16.3024 -30.3019
ltibia 44.0183
lfoot -36.0582 -3.69613
ltoes 12.2177
302
root 0.250489 16.4811 -32.0217 -157.822 1.8325 -188.827
lowerback 11.8801 -0.672597 -5.65886
upperback -2.3242 -1.78993 -0.851104
thorax -9.04552 -0.566438 2.62379
lowerneck -19.1437 -0.564811 -1.74372
upperneck 7.98134 -0.0991467 -0.972842
head 5.49357 -0.144477 -0.0372354
rclavicle 1.37161e-014 1.55052e-014
rhumerus -49.8322 -4.1148 -83.1723
rradius 51.0467
rwrist -6.53955
rhand -26.8348 -9.03439
rfingers 7.12502
rthumb -0.260512 -39.014
lclavicle 1.37161e-014 1.55052e-014
lhumerus -47.1854 -3.21338 93.07
lradius 75.8928
lwrist 4.83946
lhand -25.0473 -0.305974
lfingers 7.12502
lthumb 1.46592 29.6687
rfemur -47.2539 -15.1639 12.5449
rtibia 86.1417
rfoot -12.6511 -14.334
rtoes -33.3938
lfemur -20.164 -16.0318 -30.522
ltibia 43.7805
lfoot -35.9593 -3.99152
ltoes 11.9259
303
root 0.250802 16.4488 -32.2017 -157.516 1.70853 -188.981
lowerback 12.2592 -0.812026 -5.71208
upperback -2.23167 -2.11281 -0.891924
thorax -9.14082 -0.763106 2.68831
lowerneck -19.3684 -0.504039 -1.72864
upperneck 7.52744 -0.0261496 -0.795561
head 5.38378 -0.0830588 0.0247691
rclavicle 1.2921e-014 6.75868e-015
rhumerus -50.3609 -4.46643 -82.6706
rradius 50.5066
rwrist -7.04794
rhand -27.0015 -8.88469
rfingers 7.12502
rthumb -0.42152 -38.864
lclavicle 1.2921e-014 6.75868e-015
lhumerus -46.8088 -3.55367 93.1091
lradius 78.0038
lwrist 5.48895
lhand -25.4399 -0.300667
lfingers 7.12502
lthumb 1.08669 29.6763
rfemur -49.8297 -15.524 13.0474
rtibia 87.3228
rfoot -13.5007 -13.5206
rtoes -34.522
lfemur -19.679 -15.7117 -30.7706
ltibia 43.5968
lfoot -35.8035 -4.37152
ltoes 11.5825
304
root 0.252597 16.4146 -32.3823 -157.237 1.5964 -189.169
lowerback 12.6908 -1.00614 -5.82556
upperback -2.12756 -2.42649 -0.931039
thorax -9.24784 -0.909804 2.78397
lowerneck -19.5991 -0.450877 -1.72278
upperneck 7.05667 0.0443152 -0.620697
head 5.26941 -0.0218525 0.0871677
rclavicle 3.57812e-015 1.23246e-014
rhumerus -50.9332 -4.75567 -82.1732
rradius 50.0383
rwrist -7.57934
rhand -27.2099 -8.60111
rfingers 7.12502
rthumb -0.622834 -38.5799
lclavicle 3.57812e-015 1.23246e-014
lhumerus -46.3817 -3.82724 93.1113
lradius 80.3201
lwrist 6.16721
lhand -25.8163 -0.190934
lfingers 7.12502
lthumb 0.723195 29.7876
rfemur -52.4259 -15.8375 13.5504
rtibia 88.347
rfoot -14.3091 -12.7447
rtoes -35.5667
lfemur -19.1977 -15.3814 -31.0369
ltibia 43.4661
lfoot -35.5888 -4.84468
ltoes 11.1523
305
root 0.257118 16.3781 -32.5639 -156.973 1.49128 -189.385
lowerback 13.1535 -1.19053 -6.00321
upperback -2.01175 -2.74109 -0.961126
thorax -9.35566 -1.05349 2.92944
lowerneck -19.8375 -0.407679 -1.71994
upperneck 6.5644 0.109525 -0.459235
head 5.14929 0.0374651 0.145222
rclavicle 4.17448e-015 -2.78299e-015
rhumerus -51.5701 -4.96884 -81.6842
rradius 49.7144
rwrist -8.16553
rhand -27.4336 -8.21647
rfingers 7.12502
rthumb -0.838887 -38.1946
lclavicle 4.17448e-015 -2.78299e-015
lhumerus -45.8898 -4.03435 93.0862
lradius 82.835
lwrist 6.8508
lhand -26.1889 -0.0216525
lfingers 7.12502
lthumb 0.363315 29.9578
rfemur -55.0465 -16.0888 14.0622
rtibia 89.2094
rfoot -15.0665 -12.029
rtoes -36.5666
lfemur -18.7333 -15.0711 -31.2985
ltibia 43.3763
lfoot -35.3233 -5.41352
ltoes 10.6801
306
root 0.264188 16.3399 -32.7476 -156.727 1.37026 -189.595
lowerback 13.6464 -1.36485 -6.20295
upperback -1.88579 -3.04779 -0.969091
thorax -9.46597 -1.19123 3.11364
lowerneck -20.0754 -0.377309 -1.72071
upperneck 6.05795 0.166703 -0.322379
head 5.02452 0.0925676 0.195201
rclavicle 2.04748e-014 7.95139e-016
rhumerus -52.3129 -5.08767 -81.2103
rradius 49.6053
rwrist -8.78452
rhand -27.6946 -7.74728
rfingers 7.12502
rthumb -1.091 -37.7242
lclavicle 2.04748e-014 7.95139e-016
lhumerus -45.3285 -4.1881 93.0495
lradius 85.5398
lwrist 7.50442
lhand -26.5362 0.227175
lfingers 7.12502
lthumb 0.0278802 30.2069
rfemur -57.6559 -16.2751 14.6133
rtibia 89.8957
rfoot -15.7697 -11.3888
rtoes -37.5045
lfemur -18.2652 -14.7957 -31.5105
ltibia 43.3006
lfoot -35.0206 -6.11198
ltoes 10.2485
307
root 0.273728 16.3005 -32.9355 -156.483 1.21809 -189.776
lowerback 14.1263 -1.53016 -6.39472
upperback -1.74848 -3.33765 -0.945271
thorax -9.55328 -1.32083 3.32635
lowerneck -20.3146 -0.363415 -1.72215
upperneck 5.5383 0.210839 -0.215238
head 4.8958 0.140835 0.234547
rclavicle 2.28602e-014 1.23246e-014
rhumerus -53.1959 -5.0967 -80.7657
rradius 49.7898
rwrist -9.40611
rhand -28.0046 -7.20027
rfingers 7.12502
rthumb -1.39037 -37.1755
lclavicle 2.28602e-014 1.23246e-014
lhumerus -44.6819 -4.30521 93.0151
lradius 88.4146
lwrist 8.10268
lhand -26.868 0.494165
lfingers 7.12502
lthumb -0.292563 30.4737
rfemur -60.2341 -16.3942 15.2252
rtibia 90.3918
rfoot -16.4033 -10.8219
rtoes -38.3309
lfemur -17.7798 -14.5884 -31.642
ltibia 43.1997
lfoot -34.7032 -6.90933
ltoes 9.92649
